# xmcd
#
# Track frame offsets:
#	182
#	17445
#	36357
#	53770
#	72870
#	94375
#	116307
#	135920
#	154512
#	169825
#
# Disc length: 2458 seconds
#
# Revision: 1
# Processed by: cddbd v1.5.1PL0 Copyright (c) Steve Scherf et al.
# Submitted via: EasyCDDAExtractor 7.0.6.1
#
DISCID=7509980a
DTITLE=Gilbert Montagné - Rien Qu'une Amitié
DYEAR=1993
DGENRE=Chanson
TTITLE0=Décoller
TTITLE1=Rien Qu'une Amitié
TTITLE2=Rendez Vous D'amour
TTITLE3=Ascenseur Pour Les Nuages
TTITLE4=Envie D'Elle
TTITLE5=Tout Changer
TTITLE6=Tout C'Quon Veut C'est Danser
TTITLE7=Princess Africana
TTITLE8=Tes Quinze Ans Ton Sourire
TTITLE9=Mon Bébé
EXTD=
EXTT0=
EXTT1=
EXTT2=
EXTT3=
EXTT4=
EXTT5=
EXTT6=
EXTT7=
EXTT8=
EXTT9=
PLAYORDER=
